<svg xmlns="http://www.w3.org/2000/svg" width="256" height="256">
  <g fill-rule="evenodd">
    <path d="M38 19.79h8L26 54.43h40L42 96h-4l-2-3.464 18-31.177H18l-2-3.465z"/>
    <path d="M60 50.967h8l12-20.785 14 24.249H70l-4 6.928h32L118 96h4l2-3.464L82 19.79h-4zM126 89.072l18-31.178-2-3.463h-36l18-31.177-2-3.464H86l4 6.928h24l-12 20.785 8 13.856h24l-12 20.785z"/>
  </g>
  <g font-weight="400" font-family="Bungee" letter-spacing="0" word-spacing="0">
    <g style="line-height:459.00001526%" font-size="70">
      <path d="M54.888 238.95h-10.85q-1.33 0-1.96-.56-.56-.63-.56-1.96v-45.36q0-1.33.56-1.89.63-.63 1.96-.63h31.22q1.33 0 1.89.63.63.56.63 1.89v8.33q0 1.33-.63 1.96-.56.56-1.89.56h-17.85v7.28h12.18q1.33 0 1.89.63.63.56.63 1.89v8.4q0 1.33-.63 1.96-.56.56-1.89.56h-12.18v13.79q0 1.33-.63 1.96-.56.56-1.89.56zM127.01 225.72q0 3.22-.98 5.88-.91 2.59-3.36 4.48-2.38 1.82-6.65 2.87-4.2 1.05-10.71 1.05-6.51 0-10.78-1.05t-6.72-2.87q-2.38-1.89-3.36-4.48-.91-2.66-.91-5.88v-23.87q0-3.22.91-5.81.98-2.66 3.36-4.55 2.45-1.89 6.72-2.94t10.78-1.05q6.51 0 10.71 1.05 4.27 1.05 6.65 2.94 2.45 1.89 3.36 4.55.98 2.59.98 5.81v23.87zm-27.58-2.52q0 1.4 1.05 2.38 1.05.91 4.83.91 3.78 0 4.83-.91 1.05-.98 1.05-2.38v-18.83q0-1.33-1.05-2.24-1.05-.98-4.83-.98-3.78 0-4.83.98-1.05.91-1.05 2.24v18.83zM151.674 201.15v8.96h5.25q1.82 0 2.45-.91.63-.98.63-2.38v-2.38q0-1.4-.63-2.31-.63-.98-2.45-.98h-5.25zm-2.52 37.8h-10.78q-1.33 0-1.96-.56-.56-.63-.56-1.96v-45.36q0-1.33.56-1.89.63-.63 1.96-.63h23.31q7.84 0 10.78 3.29 3.01 3.22 3.01 8.4v3.22q0 2.94-.91 5.04-.84 2.03-3.01 2.94 3.78.42 6.09 3.08 2.38 2.66 2.38 7.07v14.84q0 1.33-.63 1.96-.56.56-1.89.56h-10.85q-1.33 0-1.96-.56-.56-.63-.56-1.96v-10.71q0-1.54-.63-2.24-.56-.77-2.03-.77h-9.8v13.72q0 1.33-.63 1.96-.56.56-1.89.56zM200.757 238.95h-10.43q-1.33 0-1.96-.56-.56-.63-.56-1.96v-45.36q0-1.33.56-1.89.63-.63 1.96-.63h11.27q1.12 0 1.82.49.77.49 1.4 1.61l6.3 11.41q.35.63.56.91.28.28.7.28h.63q.42 0 .63-.28.28-.28.63-.91l6.23-11.41q.63-1.12 1.33-1.61.77-.49 1.89-.49h11.34q1.33 0 1.89.63.63.56.63 1.89v45.36q0 1.33-.63 1.96-.56.56-1.89.56h-10.78q-1.33 0-1.96-.56-.56-.63-.56-1.96v-24.64l-4.13 7.63q-.63 1.19-1.54 1.75-.84.49-2.17.49h-2.8q-1.33 0-2.24-.49-.84-.56-1.47-1.75l-4.13-7.63v24.64q0 1.33-.63 1.96-.56.56-1.89.56z" style="-inkscape-font-specification:Bungee"/>
    </g>
    <g style="line-height:459.00001526%" font-size="35" fill="#d4aa00">
      <path d="M160.252 180.48h-13.44q-.665 0-.98-.28-.28-.315-.28-.98v-22.68q0-.665.28-.945.315-.315.98-.315h11.165q3.43 0 5.075 1.33 1.645 1.295 1.645 4.025v1.68q0 1.47-.525 2.415-.49.91-1.54 1.365 2.24.21 3.325 1.54t1.085 3.885v3.22q0 2.94-1.68 4.34-1.645 1.4-5.11 1.4zm-6.825-19.25v3.78h2.975q.665 0 .98-.35.35-.35.35-1.05v-.98q0-.7-.35-1.05-.315-.35-.98-.35h-2.975zm0 9.17v4.13h4.55q.665 0 .98-.35.35-.35.35-1.05v-1.365q0-.7-.35-1.015-.315-.35-.98-.35h-4.55zM188.413 180.48h-16.24q-.665 0-.98-.28-.28-.315-.28-.98v-22.68q0-.665.28-.945.315-.315.98-.315h16.24q.665 0 .945.315.315.28.315.945v4.095q0 .665-.315.98-.28.28-.945.28h-9.66v2.695h6.825q.665 0 .945.315.315.28.315.945v3.745q0 .665-.315.98-.28.28-.945.28h-6.825v3.01h9.66q.665 0 .945.315.315.28.315.945v4.095q0 .665-.315.98-.28.28-.945.28zM205.714 180.48h-5.67q-.665 0-.98-.28-.28-.315-.28-.98v-17.185h-5.145q-.665 0-.98-.28-.28-.315-.28-.98v-4.235q0-.665.28-.945.315-.315.98-.315h18.48q.665 0 .945.315.315.28.315.945v4.235q0 .665-.315.98-.28.28-.945.28h-5.145v17.185q0 .665-.315.98-.28.28-.945.28zM224.55 162.63l-1.645 5.32h5.495l-1.645-5.32q-.14-.315-.315-.455-.14-.14-.35-.14h-.875q-.21 0-.385.14-.14.14-.28.455zm-1.995 16.59q0 .665-.315.98-.28.28-.945.28h-5.145q-.665 0-.98-.28-.28-.315-.28-.98v-9.24q0-1.05.315-2.415.35-1.365 1.05-3.185l3.045-7.945q.21-.595.63-.875.455-.28 1.155-.28h9.415q.665 0 1.085.28.455.28.665.875l3.045 7.945q.7 1.82 1.015 3.185.35 1.365.35 2.415v9.24q0 .665-.315.98-.28.28-.945.28h-5.285q-.7 0-1.05-.28-.315-.315-.315-.98v-4.9h-6.195v4.9z" style="-inkscape-font-specification:Bungee"/>
    </g>
  </g>
  <path d="M240 128H16" fill="none" stroke="#000" stroke-width="8" stroke-linecap="round"/>
</svg>
